Tilt-Prism-Separated-WithSymbols.ufo
<glyph name="comma" format="2">
  <advance width="274"/>
  <unicode hex="002C"/>
  <outline>
    <contour>
      <point x="25" y="-130" type="move" smooth="yes" name="JUNWJFMJ"/>
      <point x="112" y="-63" name="WEWTMJJV"/>
      <point x="147" y="19" name="AEXINPXG"/>
      <point x="148" y="99" type="curve" name="AZXRXXIH"/>
    </contour>
    <contour>
      <point x="60.0" y="161.0" type="move" name="XJBUXPFQ"/>
      <point x="148.0" y="99.0" type="line" name="VWUMAPUP"/>
      <point x="227.0" y="161.0" type="line" name="JRLMZRMB"/>
    </contour>
  </outline>
</glyph>
<glyph name="two" format="2">
  <advance width="519"/>
  <unicode hex="0032"/>
  <outline>
    <contour>
      <point x="111" y="609" type="move" smooth="yes" name="DXLQGDHZ"/>
      <point x="149" y="621" name="XEDUHVXW"/>
      <point x="187" y="628" name="OZFFCEVM"/>
      <point x="224" y="628" type="curve" smooth="yes" name="UQRLRBVV"/>
      <point x="330" y="628" name="JUFSEYWR"/>
      <point x="394" y="578" name="ZMMUXAAP"/>
      <point x="394" y="494" type="curve" smooth="yes" name="UEUSZMRU"/>
      <point x="394" y="417" name="DYXMEKQC"/>
      <point x="345" y="363" name="TCSWRZOM"/>
      <point x="286" y="303" type="curve" smooth="yes" name="UJOGIDMU"/>
      <point x="224" y="240" name="HKOWZDBB"/>
      <point x="151" y="171" name="QNGQTJJQ"/>
      <point x="113" y="65" type="curve" name="IVDOZNZL"/>
      <point x="173" y="61" name="SVWYMKKG"/>
      <point x="311" y="63" name="LUXCXWWI"/>
      <point x="397" y="70" type="curve" smooth="yes" name="ITBIMWYI"/>
    </contour>
    <contour>
      <point x="49.0" y="500.0" type="move" name="JTRIQKLW"/>
      <point x="111.0" y="609.0" type="line" name="PJYICBXU"/>
      <point x="49.0" y="664.0" type="line" name="ZVSPBBMH"/>
    </contour>
    <contour>
      <point x="479.0" y="166.0" type="move" name="IQVNJISR"/>
      <point x="397.0" y="70.0" type="line" name="MBLKTCQA"/>
      <point x="459.0" y="0.0" type="line" name="LMCNVRTT"/>
    </contour>
    <contour>
      <point x="27.0" y="0.0" type="move" name="FCANTAII"/>
      <point x="113.0" y="65.0" type="line" name="WZTVKGJT"/>
      <point x="214.0" y="125.0" type="line" name="ALRLPRIZ"/>
    </contour>
  </outline>
</glyph>
<glyph name="six" format="2">
  <advance width="570"/>
  <unicode hex="0036"/>
  <outline>
    <contour>
      <point x="201" y="70" type="move" name="SQKKVBEU"/>
      <point x="158" y="101" name="DHUATODE"/>
      <point x="133" y="152" name="MCMKNWQU"/>
      <point x="133" y="214" type="curve" smooth="yes" name="WWQNYGBI"/>
      <point x="133" y="313" name="AMPMBSMR"/>
      <point x="203" y="380" name="PQBOYOLH"/>
      <point x="308" y="380" type="curve" smooth="yes" name="NZOIIPIJ"/>
      <point x="392" y="380" name="FYXBCOQH"/>
      <point x="466" y="323" name="QQKNZCZT"/>
      <point x="466" y="216" type="curve" smooth="yes" name="PXAEVVYR"/>
      <point x="466" y="119" name="KOVYITLZ"/>
      <point x="397" y="44" name="PRYIPVRD"/>
      <point x="292" y="44" type="curve" smooth="yes" name="NRWRTGKT"/>
      <point x="187" y="44" name="GDSURPUK"/>
      <point x="108" y="128" name="QHYAQFIG"/>
      <point x="108" y="307" type="curve" name="MLRGKLGW"/>
      <point x="105" y="544" name="ZLKYAWCO"/>
      <point x="198" y="628" name="YGTUJGMY"/>
      <point x="332" y="628" type="curve" smooth="yes" name="KNXOBIJL"/>
      <point x="364" y="628" name="KLTGLWGT"/>
      <point x="398" y="622" name="HVNVNIHN"/>
      <point x="434" y="609" type="curve" smooth="yes" name="HHHDNAIW"/>
    </contour>
    <contour>
      <point x="185" y="391" type="move" name="WVJDBPST"/>
      <point x="129" y="343" name="UEMXPCWP"/>
      <point x="97" y="259" name="AGUKYDLW"/>
      <point x="144" y="138" type="curve" name="BELPDSFQ"/>
    </contour>
    <contour>
      <point x="496.0" y="664.0" type="move" name="EFXCGOBP"/>
      <point x="434.0" y="609.0" type="line" name="GEKQYSIJ"/>
      <point x="496.0" y="501.0" type="line" name="PVONLEGE"/>
    </contour>
  </outline>
</glyph>
<glyph name="L" format="2">
  <advance width="504"/>
  <unicode hex="004C"/>
  <anchor x="258" y="0" name="below"/>
  <anchor x="189" y="680.0" name="above"/>
  <anchor x="273" y="537" name="right"/>
  <outline>
    <contour>
      <point x="156.0" y="66.0" type="move" name="ZWRNCKHQ"/>
      <point x="57" y="0" type="line" name="EFSHOVMG"/>
    </contour>
    <contour>
      <point x="231.0" y="132.0" type="move" name="MJVZATKE"/>
      <point x="156.0" y="66.0" type="line" name="NIRFAUYK"/>
    </contour>
    <contour>
      <point x="57.0" y="680.0" type="move" name="GRZQCAGM"/>
      <point x="156.0" y="618.0" type="line" name="LXMSTDXV"/>
      <point x="254.0" y="680.0" type="line" name="MENRSPSU"/>
    </contour>
    <contour>
      <point x="459.0" y="0.0" type="move" name="RDJQSJBO"/>
      <point x="397.0" y="74.0" type="line" name="DGWJLFZR"/>
      <point x="479.0" y="171.0" type="line" name="NFCLXEKZ"/>
    </contour>
    <contour>
      <point x="156" y="618" type="move" name="DARGRHBN"/>
      <point x="156" y="66" type="line" name="BZBSRBAL"/>
      <point x="397" y="74" type="line" name="NYOGKXYE"/>
    </contour>
  </outline>
</glyph>
<glyph name="N" format="2">
  <advance width="699"/>
  <unicode hex="004E"/>
  <anchor x="349" y="0" name="below"/>
  <anchor x="349" y="680.0" name="above"/>
  <outline>
    <contour>
      <point x="244.0" y="0.0" type="move" name="VSXLDNKZ"/>
      <point x="150.0" y="62.0" type="line" name="SUKSFYIY"/>
      <point x="57" y="0" type="line" name="HDGFSUZS"/>
    </contour>
    <contour>
      <point x="455.0" y="680.0" type="move" name="ZLEMENNY"/>
      <point x="548.0" y="618.0" type="line" name="OXQATKAG"/>
      <point x="642.0" y="680.0" type="line" name="BUSIROAB"/>
    </contour>
    <contour>
      <point x="57.0" y="680.0" type="move" name="JYHUHSXA"/>
      <point x="150.0" y="628.0" type="line" name="OHDQCNUI"/>
      <point x="213.0" y="680.0" type="line" name="YQCUMHNN"/>
    </contour>
    <contour>
      <point x="632.0" y="0.0" type="move" name="AXQSEQZU"/>
      <point x="548.0" y="57.0" type="line" name="FIQCBHOY"/>
      <point x="496.0" y="0.0" type="line" name="ZJLCBJAV"/>
    </contour>
    <contour>
      <point x="150" y="62" type="move" name="VNZQNFRY"/>
      <point x="150" y="628" type="line" name="TAUYIJYN"/>
      <point x="185" y="585" name="HGQQMFIK"/>
      <point x="225" y="533" name="MLGHPHNB"/>
      <point x="286" y="442" type="curve" smooth="yes" name="EXISWEPF"/>
      <point x="439.0" y="212.0" type="line" smooth="yes" name="BYEWLAEP"/>
      <point x="492" y="133" name="TZTMTWLM"/>
      <point x="522.0" y="91.0" name="MOZDOBOR"/>
      <point x="548.0" y="57.0" type="curve" name="ORWYJUUF"/>
      <point x="548" y="618" type="line" name="XZYVBHUK"/>
    </contour>
    <contour>
      <point x="482.0" y="279.0" type="move" name="UJWXPRAI"/>
      <point x="548.0" y="57.0" type="line" name="ZMFESRGD"/>
    </contour>
    <contour>
      <point x="150.0" y="628.0" type="move" name="FBKNOFAU"/>
      <point x="217.0" y="414.0" type="line" name="EQSWRIWZ"/>
    </contour>
  </outline>
</glyph>
<glyph name="Z" format="2">
  <advance width="588"/>
  <unicode hex="005A"/>
  <anchor x="293" y="0" name="below"/>
  <anchor x="293" y="680.0" name="above"/>
  <outline>
    <contour>
      <point x="119" y="611" type="move" smooth="yes" name="OWENHLPK"/>
      <point x="184" y="616" name="PQTPXCUQ"/>
      <point x="267" y="617" name="STSEQQJO"/>
      <point x="335" y="617" type="curve" smooth="yes" name="VCPDPZEU"/>
      <point x="444" y="617" type="line" name="YFZXXTVW"/>
      <point x="144" y="63" type="line" name="BXROWJGW"/>
      <point x="244" y="63" type="line" smooth="yes" name="ATFTIRUU"/>
      <point x="312.0" y="63.0" name="AWGJSXLQ"/>
      <point x="391" y="64" name="HGUUZXJW"/>
      <point x="458" y="70" type="curve" name="NMGHBMGQ"/>
    </contour>
    <contour>
      <point x="57.0" y="524.0" type="move" name="DMOCMXSX"/>
      <point x="119.0" y="611.0" type="line" name="BUWWFJIJ"/>
      <point x="57.0" y="680.0" type="line" name="IIYOJRYX"/>
    </contour>
    <contour>
      <point x="540.0" y="166.0" type="move" name="NFCLXEKZ"/>
      <point x="458.0" y="70.0" type="line" name="DGWJLFZR"/>
      <point x="520.0" y="0.0" type="line" name="RDJQSJBO"/>
    </contour>
    <contour>
      <point x="30.0" y="0.0" type="move" name="CQPCAPVV"/>
      <point x="144.0" y="63.0" type="line" name="VCZXJETF"/>
      <point x="259.0" y="125.0" type="line" name="ODBJONES"/>
    </contour>
    <contour>
      <point x="558.0" y="680.0" type="move" name="BNPYAHWH"/>
      <point x="444.0" y="617.0" type="line" name="CRPBYWYF"/>
      <point x="329.0" y="554.0" type="line" name="FKYLFSQN"/>
    </contour>
  </outline>
</glyph>
<glyph name="currency" format="2">
  <advance width="646"/>
  <unicode hex="00A4"/>
  <outline>
    <contour>
      <point x="117.0" y="549.0" type="move" name="XDLWZXCA"/>
      <point x="202" y="464" type="line" name="OHDMCITN"/>
    </contour>
    <contour>
      <point x="444" y="464" type="move" name="BSWQVRRK"/>
      <point x="529.0" y="549.0" type="line" name="CJMJBXZZ"/>
    </contour>
    <contour>
      <point x="22.0" y="548.0" type="move" name="SAUVGAXH"/>
      <point x="117.0" y="549.0" type="line" name="WPDNJBUY"/>
      <point x="118.0" y="644.0" type="line" name="GRAQQXAP"/>
    </contour>
    <contour>
      <point x="528.0" y="644.0" type="move" name="MBHUNNBQ"/>
      <point x="529.0" y="549.0" type="line" name="IWGLGJVN"/>
      <point x="624.0" y="548.0" type="line" name="HKKXUEMP"/>
    </contour>
    <contour>
      <point x="116.0" y="453.0" type="move" name="EWQBGAWW"/>
      <point x="202.0" y="464.0" type="line" name="WGRZYGYW"/>
      <point x="213.0" y="550.0" type="line" name="KCDHCNCF"/>
    </contour>
    <contour>
      <point x="433.0" y="549.0" type="move" name="QMSKHLMU"/>
      <point x="444.0" y="464.0" type="line" name="VQGWGSXD"/>
      <point x="529.0" y="453.0" type="line" name="PYMLFZCR"/>
    </contour>
    <contour>
      <point x="503.0" y="282.0" name="AQCLWXNY"/>
      <point x="502.0" y="406.0" name="TCWYBMML"/>
      <point x="444" y="464" type="curve" smooth="yes" name="PVCAMZIH"/>
      <point x="384.0" y="524.0" name="RGHPVTNI"/>
      <point x="260.0" y="526.0" name="PNBIBFUV"/>
      <point x="202" y="464" type="curve" smooth="yes" name="WJHHCFSS"/>
      <point x="144.0" y="406.0" name="YHBAZIOY"/>
      <point x="145.0" y="282.0" name="EYBFPEQE"/>
      <point x="203" y="224" type="curve" smooth="yes" name="PQPNDNGQ"/>
      <point x="263.0" y="164.0" name="JZZKQWID"/>
      <point x="387.0" y="162.0" name="LWZTANVO"/>
      <point x="445" y="224" type="curve" smooth="yes" name="BFSUQXFG"/>
    </contour>
    <contour>
      <point x="530.0" y="139.0" type="move" name="PKVWZQLD"/>
      <point x="445" y="224" type="line" name="QIMZXHJI"/>
    </contour>
    <contour>
      <point x="203" y="224" type="move" name="OGJICELV"/>
      <point x="118.0" y="139.0" type="line" name="CDXGGQSM"/>
    </contour>
    <contour>
      <point x="625.0" y="140.0" type="move" name="RBOXMNZL"/>
      <point x="530.0" y="139.0" type="line" name="LIBISAVF"/>
      <point x="529.0" y="44.0" type="line" name="PMUYISTR"/>
    </contour>
    <contour>
      <point x="119.0" y="44.0" type="move" name="XNNTVQBN"/>
      <point x="118.0" y="139.0" type="line" name="GAMTDFCD"/>
      <point x="23.0" y="140.0" type="line" name="XKDDKHXI"/>
    </contour>
    <contour>
      <point x="531.0" y="235.0" type="move" name="KPOXTCHY"/>
      <point x="445.0" y="224.0" type="line" name="BFXHVAYF"/>
      <point x="434.0" y="138.0" type="line" name="XWVEOYUP"/>
    </contour>
    <contour>
      <point x="214.0" y="139.0" type="move" name="RRSKBTWH"/>
      <point x="203.0" y="224.0" type="line" name="EABTPVVV"/>
      <point x="118.0" y="235.0" type="line" name="MAIUCKBC"/>
    </contour>
  </outline>
</glyph>
<glyph name="ordfeminine" format="2">
  <advance width="495"/>
  <unicode hex="00AA"/>
  <outline>
    <contour>
      <point x="387.0" y="168.0" type="move" name="AHBASXNG"/>
      <point x="118.0" y="168.0" type="line" name="FWGGRKND"/>
    </contour>
    <contour>
      <point x="66.0" y="113.0" type="move" name="SIAMBFMI"/>
      <point x="118.0" y="168.0" type="line" name="AWJEQRGB"/>
      <point x="66.0" y="222.0" type="line" name="OIRWJVVO"/>
    </contour>
    <contour>
      <point x="439.0" y="222.0" type="move" name="EODMASAK"/>
      <point x="387.0" y="168.0" type="line" name="JABROEUQ"/>
      <point x="439.0" y="113.0" type="line" name="XPRWKGXC"/>
    </contour>
    <contour>
      <point x="380" y="486" type="curve" name="PRWMOOMS"/>
      <point x="380.0" y="580.0" name="MTXJRGVH"/>
      <point x="320" y="644.0" name="NCSNODJO"/>
      <point x="244" y="644.0" type="curve" smooth="yes" name="AIZJSIWA"/>
      <point x="164" y="644.0" name="BHACPEJU"/>
      <point x="106.0" y="582.0" name="GLZXPTOH"/>
      <point x="106" y="488" type="curve" smooth="yes" name="PHEZBWXK"/>
      <point x="106.0" y="395.0" name="STTIEPSB"/>
      <point x="163" y="332.0" name="QDDIKURP"/>
      <point x="241" y="332.0" type="curve" smooth="yes" name="XTWFAVZF"/>
      <point x="319" y="332.0" name="SVHUTTRP"/>
      <point x="380.0" y="396.0" name="BNCBQVKV"/>
    </contour>
    <contour>
      <point x="380.0" y="638.0" type="move" name="RSJWQUUG"/>
      <point x="380.0" y="337.0" type="line" name="CEZDFUZV"/>
    </contour>
    <contour>
      <point x="439.0" y="295.0" type="move" name="YXAEEUVB"/>
      <point x="380.0" y="337.0" type="line" name="OKZDKEQZ"/>
      <point x="320.0" y="295.0" type="line" name="IFCEDEZW"/>
    </contour>
    <contour>
      <point x="320.0" y="680.0" type="move" name="VZJSKDSO"/>
      <point x="380.0" y="638.0" type="line" name="RWZTWCRA"/>
      <point x="439.0" y="680.0" type="line" name="ALDRWPON"/>
    </contour>
  </outline>
</glyph>
<glyph name="threequarters" format="2">
  <advance width="960"/>
  <unicode hex="00BE"/>
  <outline>
    <contour>
      <point x="660" y="628" type="move" name="CVGMOIPZ"/>
      <point x="310" y="52" type="line" name="HAMZUUTH"/>
    </contour>
    <contour>
      <point x="342" y="0" type="move" name="JRLMZRMB"/>
      <point x="310" y="52" type="line" name="VWUMAPUP"/>
      <point x="216" y="0" type="line" name="XJBUXPFQ"/>
    </contour>
    <contour>
      <point x="628" y="680" type="move" name="ECUUNSVW"/>
      <point x="660" y="628" type="line" name="WZGBHWZC"/>
      <point x="754" y="680" type="line" name="SFLOLYUF"/>
    </contour>
    <contour>
      <point x="813" y="52" type="move" name="YLKTYDSE"/>
      <point x="813" y="361" type="line" name="JOYMLHOM"/>
      <point x="730" y="361" type="line" name="PMHREQCV"/>
      <point x="617" y="139" type="line" name="IASGRGUF"/>
      <point x="877" y="139" type="line" name="KRMNCZPK"/>
    </contour>
    <contour>
      <point x="541" y="95" type="move" name="ELENJWXW"/>
      <point x="617" y="139" type="line" name="SGLMYNKZ"/>
      <point x="693" y="184" type="line" name="VZYBCCWC"/>
    </contour>
    <contour>
      <point x="710" y="409" type="move" name="TPRUROBU"/>
      <point x="730" y="361" type="line" name="EPKIYCWR"/>
      <point x="753" y="312" type="line" name="VWJUODPM"/>
      <point x="813" y="361" type="line" name="YHUDWJXH"/>
      <point x="889" y="409" type="line" name="CMGKMTGJ"/>
    </contour>
    <contour>
      <point x="927" y="198" type="move" name="FBGDBOXB"/>
      <point x="877" y="139" type="line" name="VZDXPBER"/>
      <point x="927" y="82" type="line" name="CEGAIVWA"/>
    </contour>
    <contour>
      <point x="870" y="186" type="move" name="OLKLIABD"/>
      <point x="813" y="139" type="line" name="EQBZVSVQ"/>
      <point x="753" y="95" type="line" name="DCXLRJTX"/>
    </contour>
    <contour>
      <point x="755" y="184" type="move" name="TZLWLDNI"/>
      <point x="813" y="139" type="line" name="FBUZPITT"/>
      <point x="872" y="93" type="line" name="YAFLRDXM"/>
    </contour>
    <contour>
      <point x="889" y="0" type="move" name="HMCBDXWQ"/>
      <point x="813" y="52" type="line" name="NKQGKGLT"/>
      <point x="736" y="0" type="line" name="AHVUZJUJ"/>
    </contour>
    <contour>
      <point x="120" y="317" type="move" smooth="yes" name="JRUXSFZD"/>
      <point x="141" y="310" name="JIBJSBOH"/>
      <point x="163" y="307" name="IHWGAZVI"/>
      <point x="184" y="307" type="curve" smooth="yes" name="CXZVCTCZ"/>
      <point x="257" y="307" name="TIPVLGSB"/>
      <point x="312" y="341" name="LTDFUXND"/>
      <point x="312" y="400" type="curve" smooth="yes" name="QHULUQXJ"/>
      <point x="312" y="447" name="LWTBYCTF"/>
      <point x="267" y="480" name="YWWYNEVJ"/>
      <point x="175" y="485" type="curve" name="XNFXYGYM"/>
      <point x="281" y="629" type="line" name="NYENRZQQ"/>
      <point x="212" y="629" name="UWYHNHDH"/>
      <point x="164" y="628" name="ICYCOAQW"/>
      <point x="126" y="625" type="curve" smooth="yes" name="BGLDENIM"/>
    </contour>
    <contour>
      <point x="76" y="560" type="move" name="FRJKTIMY"/>
      <point x="126" y="625" type="line" name="UTLUQAWV"/>
      <point x="76" y="680" type="line" name="ZDASUZFS"/>
    </contour>
    <contour>
      <point x="70" y="276" type="move" name="TGFXCQTK"/>
      <point x="120" y="317" type="line" name="HZLNRRPR"/>
      <point x="70" y="395" type="line" name="QDZWAVFU"/>
    </contour>
    <contour>
      <point x="95" y="446" type="move" name="MARYGSTD"/>
      <point x="175" y="485" type="line" name="HZFWCSSE"/>
      <point x="253" y="520" type="line" name="PGDPNKFO"/>
    </contour>
    <contour>
      <point x="190" y="577" type="move" name="ECSJGFRE"/>
      <point x="281" y="629" type="line" name="SAYDHVPA"/>
      <point x="373" y="680" type="line" name="OASQTCIB"/>
    </contour>
  </outline>
</glyph>
<glyph name="germandbls" format="2">
  <advance width="588"/>
  <unicode hex="00DF"/>
  <outline>
    <contour>
      <point x="132" y="62" type="move" name="LJMWJQLQ"/>
      <point x="132" y="362" type="line" name="DTHEETEX"/>
      <point x="132" y="460" name="YODRPQAM"/>
      <point x="180" y="522" name="JMVFQRPQ"/>
      <point x="272" y="522" type="curve" smooth="yes" name="QCAMVLQX"/>
      <point x="452" y="522" type="line" name="DXZCZKXJ"/>
      <point x="334" y="302" type="line" name="UFYDPXFI"/>
      <point x="434" y="280" name="IAZXIGQW"/>
      <point x="489" y="242" name="RAHKMKTN"/>
      <point x="489" y="168" type="curve" smooth="yes" name="CYFTDVDO"/>
      <point x="489" y="88" name="KQDQWHJB"/>
      <point x="421" y="42" name="QTLWUAHB"/>
      <point x="313" y="60" type="curve" smooth="yes" name="LLBZARIL"/>
    </contour>
    <contour>
      <point x="223.0" y="0.0" type="move" name="YXGHWLTF"/>
      <point x="132.0" y="62.0" type="line" name="LAACJQDB"/>
      <point x="40.0" y="0.0" type="line" name="MSHQYFCO"/>
    </contour>
    <contour>
      <point x="251.0" y="3.0" type="move" name="XHKOZASS"/>
      <point x="313.0" y="60.0" type="line" name="CRONQJIY"/>
      <point x="251.0" y="149.0" type="line" name="RNVJLUPO"/>
    </contour>
    <contour>
      <point x="555.0" y="580.0" type="move" name="CIIHKUUR"/>
      <point x="452.0" y="522.0" type="line" name="OKUDCZLR"/>
      <point x="349.0" y="463.0" type="line" name="SXWCKCAK"/>
    </contour>
    <contour>
      <point x="422.0" y="335.0" type="move" name="EDUKDXMY"/>
      <point x="334.0" y="302.0" type="line" name="IBWXQJNH"/>
      <point x="245.0" y="265.0" type="line" name="JPJKYNSK"/>
    </contour>
  </outline>
</glyph>
<glyph name="oslash" format="2">
  <advance width="638"/>
  <unicode hex="00F8"/>
  <anchor x="319" y="-17" name="below"/>
  <anchor x="310" y="582" name="above"/>
  <outline>
    <contour>
      <point x="161.0" y="1.0" type="move" name="SPJKSPOB"/>
      <point x="204" y="80" type="line" name="TLWYYHPX"/>
      <point x="433" y="500" type="line" name="WWJOZSKL"/>
      <point x="475.0" y="577.0" type="line" name="ROMCCTQK"/>
    </contour>
    <contour>
      <point x="319" y="48" type="curve" smooth="yes" name="CDIMICEB"/>
      <point x="276" y="48" name="LGOIJFAN"/>
      <point x="237" y="59" name="BHXZEGKT"/>
      <point x="204" y="80" type="curve" smooth="yes" name="LORKIPSF"/>
      <point x="141" y="120" name="WWERUPGZ"/>
      <point x="102" y="195" name="ZMCJKVVF"/>
      <point x="102" y="291" type="curve" smooth="yes" name="NWVKJWNG"/>
      <point x="102" y="436" name="POZDZFUI"/>
      <point x="191" y="532" name="HFPYSKEH"/>
      <point x="319" y="532" type="curve" smooth="yes" name="MXKNZWRY"/>
      <point x="362" y="532" name="VYOFEAMK"/>
      <point x="401" y="521" name="RFGSMPTE"/>
      <point x="433" y="500" type="curve" smooth="yes" name="OKQWRHLT"/>
      <point x="497" y="461" name="QHZXWGCA"/>
      <point x="536" y="386" name="KUYNXKWC"/>
      <point x="536" y="291" type="curve" smooth="yes" name="NNRGDMOJ"/>
      <point x="536" y="146" name="AXWTMRFF"/>
      <point x="446" y="48" name="AKMITIGQ"/>
    </contour>
    <contour>
      <point x="182.0" y="-82.0" type="move" name="CKQYKAJL"/>
      <point x="161.0" y="1.0" type="line" name="FRXZRSUB"/>
      <point x="80.0" y="-27.0" type="line" name="ECXNZUKX"/>
    </contour>
    <contour>
      <point x="454.0" y="660.0" type="move" name="NAYHLLEB"/>
      <point x="475.0" y="577.0" type="line" name="EKHTFNRW"/>
      <point x="556.0" y="605.0" type="line" name="EPAUYNRO"/>
    </contour>
    <contour>
      <point x="410.0" y="579.0" type="move" name="UKTDJVUG"/>
      <point x="433.0" y="500.0" type="line" name="EOUNEXMO"/>
      <point x="441.0" y="395.0" type="line" name="YTXTTXVD"/>
    </contour>
    <contour>
      <point x="349.0" y="468.0" type="move" name="QVOQPLBT"/>
      <point x="433.0" y="500.0" type="line" name="FGEORNTC"/>
      <point x="511.0" y="523.0" type="line" name="UPHKFOQY"/>
    </contour>
    <contour>
      <point x="227.0" y="1.0" type="move" name="ODDBAAZH"/>
      <point x="204.0" y="80.0" type="line" name="XGMQEOXN"/>
      <point x="196.0" y="187.0" type="line" name="LJZTEXOK"/>
    </contour>
    <contour>
      <point x="288.0" y="112.0" type="move" name="TEGXXTPC"/>
      <point x="204.0" y="80.0" type="line" name="WVOGAXOL"/>
      <point x="126.0" y="58.0" type="line" name="EHWDTKYA"/>
    </contour>
  </outline>
</glyph>
<glyph name="Ldot" format="2">
  <advance width="504"/>
  <unicode hex="013F"/>
  <outline>
    <contour>
      <point x="156" y="66" type="move" name="ZWRNCKHQ"/>
      <point x="57" y="0" type="line" name="EFSHOVMG"/>
    </contour>
    <contour>
      <point x="231" y="132" type="move" name="MJVZATKE"/>
      <point x="156" y="66" type="line" name="NIRFAUYK"/>
    </contour>
    <contour>
      <point x="57" y="680" type="move" name="GRZQCAGM"/>
      <point x="156" y="618" type="line" name="LXMSTDXV"/>
      <point x="254" y="680" type="line" name="MENRSPSU"/>
    </contour>
    <contour>
      <point x="459" y="0" type="move" name="RDJQSJBO"/>
      <point x="397" y="74" type="line" name="DGWJLFZR"/>
      <point x="479" y="171" type="line" name="NFCLXEKZ"/>
    </contour>
    <contour>
      <point x="156" y="618" type="move" name="DARGRHBN"/>
      <point x="156" y="66" type="line" name="BZBSRBAL"/>
      <point x="397" y="74" type="line" name="NYOGKXYE"/>
    </contour>
    <contour>
      <point x="328" y="438" type="move" name="QCGWULHO"/>
      <point x="408" y="358" type="line" name="YFPBKXNV"/>
      <point x="489" y="277" type="line" name="INBZYEGN"/>
    </contour>
    <contour>
      <point x="489" y="438" type="move" name="HRMAKWLK"/>
      <point x="408" y="358" type="line" name="VOVZRJAG"/>
      <point x="328" y="277" type="line" name="GZCJRFMX"/>
    </contour>
  </outline>
</glyph>
<glyph name="ldot" format="2">
  <advance width="451"/>
  <unicode hex="0140"/>
  <outline>
    <contour>
      <point x="146" y="518" type="move" name="SFCYOLAK"/>
      <point x="146" y="64" type="line" name="QBLAKGEF"/>
      <point x="243" y="62" name="VWUQWQXO"/>
      <point x="313" y="64" name="YCDHSZJN"/>
      <point x="354" y="68" type="curve" smooth="yes" name="MVZJAAVR"/>
    </contour>
    <contour>
      <point x="50" y="580" type="move" name="KXMIKRGB"/>
      <point x="146" y="518" type="line" name="LTKQYIAH"/>
      <point x="241" y="580" type="line" name="EYIDYGUA"/>
    </contour>
    <contour>
      <point x="416" y="0" type="move" name="EAJLMKUL"/>
      <point x="354" y="68" type="line" name="WFLPYOKA"/>
      <point x="436" y="165" type="line" name="HCCVQFGB"/>
    </contour>
    <contour>
      <point x="50" y="0" type="move" name="LMARIZVP"/>
      <point x="146" y="64" type="line" name="LYLLUWZU"/>
      <point x="217" y="126" type="line" name="FYZTITQS"/>
    </contour>
    <contour>
      <point x="292" y="428" type="move" name="QCGWULHO"/>
      <point x="372" y="348" type="line" name="YFPBKXNV"/>
      <point x="453" y="267" type="line" name="INBZYEGN"/>
    </contour>
    <contour>
      <point x="453" y="428" type="move" name="HRMAKWLK"/>
      <point x="372" y="348" type="line" name="VOVZRJAG"/>
      <point x="292" y="267" type="line" name="GZCJRFMX"/>
    </contour>
  </outline>
</glyph>
<glyph name="tcedilla" format="2">
  <advance width="513"/>
  <unicode hex="0163"/>
  <outline>
    <contour>
      <point x="431" y="514" type="move" smooth="yes" name="NKHVAWFK"/>
      <point x="391" y="518" name="PLELAUPC"/>
      <point x="336" y="520" name="NSWTNSCK"/>
      <point x="256" y="520" type="curve" name="OTOUSEXD"/>
      <point x="177" y="520" name="KBQXGEUE"/>
      <point x="122" y="518" name="QWTEAYNH"/>
      <point x="82" y="514" type="curve" smooth="yes" name="OOJKFXCG"/>
    </contour>
    <contour>
      <point x="256" y="520" type="move" name="XDGNPDEP"/>
      <point x="256" y="62" type="line" smooth="yes" name="XPVSQQSM"/>
      <point x="256.0" y="1.0" name="RLUUHIOC"/>
      <point x="245" y="-36" name="QALBZIXE"/>
      <point x="287" y="-62" type="curve" smooth="yes" name="TEKFGRMA"/>
      <point x="316" y="-81" name="USQJFGKW"/>
      <point x="339" y="-95" name="RPHIFUXC"/>
      <point x="339" y="-129" type="curve" smooth="yes" name="PVDCCCRW"/>
      <point x="339" y="-171" name="JLJOZULG"/>
      <point x="309" y="-195" name="EFEXKVDK"/>
      <point x="261" y="-195" type="curve" smooth="yes" name="HANIERQU"/>
      <point x="241" y="-195" name="WRUAYQID"/>
      <point x="217" y="-191" name="TTUGUSKN"/>
      <point x="191" y="-183" type="curve" smooth="yes" name="PFIXYHUW"/>
    </contour>
    <contour>
      <point x="493" y="580" type="move" name="OROOLRBM"/>
      <point x="431" y="514" type="line" name="WNRRHRKG"/>
      <point x="493" y="430" type="line" name="EPFSEUTY"/>
    </contour>
    <contour>
      <point x="20" y="430" type="move" name="VJVFZWUB"/>
      <point x="82" y="514" type="line" name="ACLETCGV"/>
      <point x="20" y="580" type="line" name="EAHZROVQ"/>
    </contour>
    <contour>
      <point x="185" y="459" type="move" name="GQRRFPDD"/>
      <point x="256" y="520" type="line" name="SIHADPNE"/>
      <point x="328" y="459" type="line" name="GXNTQBMM"/>
    </contour>
    <contour>
      <point x="352" y="0" type="move" name="MIXJODID"/>
      <point x="256" y="62" type="line" name="LMGDIEDD"/>
      <point x="161" y="0" type="line" name="QEDZPQCJ"/>
    </contour>
    <contour>
      <point x="141" y="-107" type="move" name="EITWUQSI"/>
      <point x="191" y="-183" type="line" name="PPGFLODN"/>
      <point x="141" y="-220" type="line" name="WPHNNTUB"/>
    </contour>
    <contour>
      <point x="196" y="0" type="move" name="BUHLHDNR"/>
      <point x="256.0" y="62.0" type="line" name="SWFSZQES"/>
      <point x="297" y="0" type="line" name="RGIRMPRB"/>
    </contour>
  </outline>
</glyph>
<glyph name="uogonek" format="2">
  <advance width="620"/>
  <unicode hex="0173"/>
  <outline>
    <contour>
      <point x="136" y="518" type="move" name="QIBKBWZR"/>
      <point x="136" y="214" type="line" smooth="yes" name="WQZNRNOZ"/>
      <point x="136" y="112" name="VTANEAMA"/>
      <point x="206" y="48" name="IRPPFYFD"/>
      <point x="310" y="48" type="curve" smooth="yes" name="JNHIYEKA"/>
      <point x="334" y="48" name="PGHLQHZX"/>
      <point x="357.0" y="52.0" name="FPMXIENG"/>
      <point x="377.0" y="58.0" type="curve" smooth="yes" name="WTVKPRBF"/>
      <point x="443.0" y="80.0" name="KRYREKNE"/>
      <point x="484" y="136" name="VBRGVSPD"/>
      <point x="484" y="214" type="curve" smooth="yes" name="FLWRLTFV"/>
      <point x="484" y="518" type="line" name="UXUMBWAC"/>
    </contour>
    <contour>
      <point x="231.0" y="580.0" type="move" name="SQLLXOYY"/>
      <point x="136.0" y="518.0" type="line" name="RIZIZSMX"/>
      <point x="40.0" y="580.0" type="line" name="XILHXCDH"/>
    </contour>
    <contour>
      <point x="580.0" y="580.0" type="move" name="TUMDPWAE"/>
      <point x="484.0" y="518.0" type="line" name="EZNWXIRW"/>
      <point x="389.0" y="580.0" type="line" name="WUBTDLXF"/>
    </contour>
    <contour>
      <point x="418.0" y="-63.0" type="move" name="ICWUZGVP"/>
      <point x="355.0" y="-137.0" type="line" name="PHAFXCXF"/>
      <point x="408.0" y="-176.0" type="line" name="KCYBJNZY"/>
    </contour>
    <contour>
      <point x="355" y="-137" type="move" smooth="yes" name="LYMAMILK"/>
      <point x="293" y="-146" name="FOWOEFNW"/>
      <point x="257" y="-120" name="PGIGLLIM"/>
      <point x="257" y="-71" type="curve" smooth="yes" name="GFQWMEHQ"/>
      <point x="257" y="-27" name="IINTJLSU"/>
      <point x="298" y="27" name="GQLYLXEC"/>
      <point x="377" y="58" type="curve" name="HPHEPJUP"/>
    </contour>
    <contour>
      <point x="377" y="58" type="move" name="QFAPJWBS"/>
      <point x="324" y="41" name="QHDZHPXO"/>
      <point x="269" y="19" name="FROFPYWT"/>
      <point x="224" y="-5" type="curve" name="GHPEWKGX"/>
    </contour>
  </outline>
</glyph>
<glyph name="Ecedilla" format="2">
  <advance width="549"/>
  <unicode hex="0228"/>
  <anchor x="276" y="680.0" name="above"/>
  <outline>
    <contour>
      <point x="414" y="611" type="move" smooth="yes" name="PSTPYLRZ"/>
      <point x="343" y="616" name="SKEEOTAO"/>
      <point x="225" y="620" name="TDJFVIIW"/>
      <point x="156" y="618" type="curve" name="DARGRHBN"/>
      <point x="156" y="62" type="line" name="BZBSRBAL"/>
      <point x="188" y="61" name="YMTKLIXE"/>
      <point x="229" y="61" name="DHPCLJFA"/>
      <point x="271" y="62" type="curve" smooth="yes" name="SXMJNPJE"/>
      <point x="321" y="63" name="EPYEWBKU"/>
      <point x="373" y="66" name="ZEAJOXFO"/>
      <point x="412" y="69" type="curve" smooth="yes" name="WQTISNDK"/>
    </contour>
    <contour>
      <point x="387" y="350" type="move" name="GRLQYXQK"/>
      <point x="156" y="350" type="line" name="GHHEYZBI"/>
    </contour>
    <contour>
      <point x="231" y="125" type="move" name="MJVZATKE"/>
      <point x="156" y="62" type="line" name="ZWRNCKHQ"/>
      <point x="57" y="0" type="line" name="EFSHOVMG"/>
    </contour>
    <contour>
      <point x="57" y="680" type="move" name="GRZQCAGM"/>
      <point x="156" y="618" type="line" name="LXMSTDXV"/>
      <point x="231" y="555" type="line" name="MENRSPSU"/>
    </contour>
    <contour>
      <point x="476" y="680" type="move" name="IIYOJRYX"/>
      <point x="414" y="611" type="line" name="BUWWFJIJ"/>
      <point x="476" y="524" type="line" name="DMOCMXSX"/>
    </contour>
    <contour>
      <point x="494" y="166" type="move" name="NFCLXEKZ"/>
      <point x="412" y="69" type="line" name="DGWJLFZR"/>
      <point x="474" y="0" type="line" name="RDJQSJBO"/>
    </contour>
    <contour>
      <point x="449" y="432" type="move" name="UBWSCXEJ"/>
      <point x="387" y="350" type="line" name="OGPDTMUS"/>
      <point x="449" y="269" type="line" name="JMWBMAFS"/>
    </contour>
    <contour>
      <point x="227" y="410" type="move" name="HAWFMGNR"/>
      <point x="156" y="350" type="line" name="ROFWTZTV"/>
      <point x="227" y="290" type="line" name="GOKVVXDN"/>
    </contour>
    <contour>
      <point x="271" y="62" type="move" smooth="yes" name="XINJBVQL"/>
      <point x="252" y="-3" name="FWZMLRVK"/>
      <point x="273" y="-39" name="VAFZOZTY"/>
      <point x="308" y="-62" type="curve" smooth="yes" name="DGTVXKHN"/>
      <point x="338" y="-82" name="AYFMGDVX"/>
      <point x="360" y="-95" name="RLXRHLZU"/>
      <point x="360" y="-129" type="curve" smooth="yes" name="RVPVSRWM"/>
      <point x="360" y="-171" name="ADDXLJKA"/>
      <point x="330" y="-195" name="STSGCOMF"/>
      <point x="282" y="-195" type="curve" smooth="yes" name="CSNBAVRP"/>
      <point x="262" y="-195" name="HYMWXBND"/>
      <point x="238" y="-191" name="ZUXXGWGT"/>
      <point x="212" y="-183" type="curve" name="KIKCFUQW"/>
    </contour>
    <contour>
      <point x="162" y="-107" type="move" name="WRAAJWFB"/>
      <point x="212" y="-183" type="line" name="OQKSJOYH"/>
      <point x="162" y="-220" type="line" name="IYKJGOKI"/>
    </contour>
    <contour>
      <point x="217.0" y="0.0" type="move" name="FEXHXMPN"/>
      <point x="271.0" y="62.0" type="line" name="RDJIKFBA"/>
      <point x="318.0" y="0.0" type="line" name="NJACMRIY"/>
    </contour>
  </outline>
</glyph>
<glyph name="acutecmb" format="2">
  <unicode hex="0301"/>
  <anchor x="0" y="517" name="_above"/>
  <anchor x="0" y="728" name="above"/>
  <anchor x="0" y="517" name="_aboveright"/>
  <outline>
    <contour>
      <point x="64.0" y="687.0" type="move" name="FDFDDIRU"/>
      <point x="33.0" y="640.0" type="line" name="UYPJFEUR"/>
    </contour>
    <contour>
      <point x="25.0" y="747.0" type="move" name="XJMHMYNQ"/>
      <point x="64.0" y="687.0" type="line" name="OBYPHDRD"/>
      <point x="181.0" y="747.0" type="line" name="GAIIODEY"/>
    </contour>
    <contour>
      <point x="60.0" y="580.0" type="move" name="MSPKYMKB"/>
      <point x="33.0" y="640.0" type="line" name="ADPZNHOK"/>
      <point x="-73.0" y="580.0" type="line" name="UUXMQNPA"/>
    </contour>
  </outline>
</glyph>
<glyph name="dotaccentcmb" format="2">
  <unicode hex="0307"/>
  <anchor x="0" y="517" name="_above"/>
  <anchor x="0" y="744" name="above"/>
  <outline>
    <contour>
      <point x="-81.0" y="748.0" type="move" name="QCGWULHO"/>
      <point x="-1" y="668" type="line" name="YFPBKXNV"/>
      <point x="80.0" y="587.0" type="line" name="INBZYEGN"/>
    </contour>
    <contour>
      <point x="80.0" y="748.0" type="move" name="HRMAKWLK"/>
      <point x="-1" y="668" type="line" name="VOVZRJAG"/>
      <point x="-81.0" y="587.0" type="line" name="GZCJRFMX"/>
    </contour>
  </outline>
</glyph>
<glyph name="dieresiscmb" format="2">
  <unicode hex="0308"/>
  <anchor x="0" y="517" name="_above"/>
  <anchor x="0" y="744" name="above"/>
  <outline>
    <contour>
      <point x="-200.0" y="748.0" type="move" name="BPPATKJM"/>
      <point x="-120.0" y="668.0" type="line" name="ALEYFRYR"/>
      <point x="-39.0" y="587.0" type="line" name="BBLOZLBM"/>
    </contour>
    <contour>
      <point x="-39.0" y="748.0" type="move" name="FLCAEMFP"/>
      <point x="-120.0" y="668.0" type="line" name="XTUMVQVU"/>
      <point x="-200.0" y="587.0" type="line" name="ROWOQFZF"/>
    </contour>
    <contour>
      <point x="40.0" y="748.0" type="move" name="OJSNJXVS"/>
      <point x="120.0" y="668.0" type="line" name="BDNRFGPU"/>
      <point x="201.0" y="587.0" type="line" name="OSDTRPEM"/>
    </contour>
    <contour>
      <point x="201.0" y="748.0" type="move" name="VQRDLICG"/>
      <point x="120.0" y="668.0" type="line" name="UYGOYIZO"/>
      <point x="40.0" y="587.0" type="line" name="SSAOTVQV"/>
    </contour>
  </outline>
</glyph>
<glyph name="gravedoublecmb" format="2">
  <unicode hex="030F"/>
  <anchor x="0" y="517" name="_above"/>
  <anchor x="0" y="728" name="above"/>
  <outline>
    <contour>
      <point x="36.0" y="687.0" type="move" name="TURTGPPN"/>
      <point x="64.0" y="640.0" type="line" name="VTNUWAFQ"/>
    </contour>
    <contour>
      <point x="-76.0" y="747.0" type="move" name="HJFNVFTR"/>
      <point x="36.0" y="687.0" type="line" name="XVTHHFKF"/>
      <point x="75.0" y="747.0" type="line" name="XSBTTWQP"/>
    </contour>
    <contour>
      <point x="165.0" y="580.0" type="move" name="GEZEJVVZ"/>
      <point x="64.0" y="640.0" type="line" name="OPOULVWT"/>
      <point x="36.0" y="580.0" type="line" name="WQRNULVT"/>
    </contour>
    <contour>
      <point x="-144.0" y="687.0" type="move" name="SBQJSXMR"/>
      <point x="-111.0" y="640.0" type="line" name="GYDAHBCU"/>
    </contour>
    <contour>
      <point x="-262.0" y="747.0" type="move" name="FIPONIGB"/>
      <point x="-144.0" y="687.0" type="line" name="ZGTDMYJH"/>
      <point x="-111.0" y="747.0" type="line" name="KTAIJYFX"/>
    </contour>
    <contour>
      <point x="-4.0" y="580.0" type="move" name="TWUYAZNC"/>
      <point x="-111.0" y="640.0" type="line" name="CJVODDZT"/>
      <point x="-133.0" y="580.0" type="line" name="EVETYXNJ"/>
    </contour>
  </outline>
</glyph>
<glyph name="commaturnedabovecmb" format="2">
  <unicode hex="0312"/>
  <anchor x="0" y="517" name="_above"/>
  <anchor x="0" y="725" name="above"/>
  <outline>
    <contour>
      <point x="-11" y="640" type="move" smooth="yes" name="AZMJBOEQ"/>
      <point x="-4" y="692" name="RPYVIDYV"/>
      <point x="28" y="740" name="AMBKJFIL"/>
      <point x="103" y="771" type="curve" name="JCFFUBBV"/>
    </contour>
    <contour>
      <point x="68.0" y="580.0" type="move" name="XIVBJGED"/>
      <point x="-11.0" y="640.0" type="line" name="YXYVZHKH"/>
      <point x="-89.0" y="580.0" type="line" name="QMKYQJYR"/>
    </contour>
  </outline>
</glyph>
<glyph name="cedillacmb" format="2">
  <unicode hex="0327"/>
  <anchor x="-3" y="0" name="_below"/>
  <anchor x="-3" y="-230" name="below"/>
  <outline>
    <contour>
      <point x="-22" y="22" type="move" name="HBWVCLMR"/>
      <point x="-24" y="-31" name="ZEUBHPXT"/>
      <point x="2" y="-50" name="YANURGLN"/>
      <point x="27" y="-67" type="curve" smooth="yes" name="SRJAFKWJ"/>
      <point x="50" y="-82" name="ZEDFKKWY"/>
      <point x="72" y="-95" name="LJQCQFOK"/>
      <point x="72" y="-129" type="curve" smooth="yes" name="TJIXNUMY"/>
      <point x="72" y="-171" name="AMOWGYEE"/>
      <point x="42" y="-195" name="DYCENZAJ"/>
      <point x="-6" y="-195" type="curve" smooth="yes" name="YEIRFJVB"/>
      <point x="-26" y="-195" name="TRHZUMTI"/>
      <point x="-50" y="-191" name="UBFMGKIW"/>
      <point x="-76" y="-183" type="curve" smooth="yes" name="IWHCFRSC"/>
    </contour>
    <contour>
      <point x="-126.0" y="-107.0" type="move" name="RTSDUZSG"/>
      <point x="-76.0" y="-183.0" type="line" name="AJCNBBHV"/>
      <point x="-126.0" y="-220.0" type="line" name="THWDMPGV"/>
    </contour>
  </outline>
</glyph>
<glyph name="belowbrevecmb" format="2">
  <unicode hex="032E"/>
  <anchor x="0" y="0" name="_below"/>
  <anchor x="0" y="-240" name="below"/>
  <outline>
    <contour>
      <point x="111.0" y="-118.0" type="move" smooth="yes" name="WMZVFRDO"/>
      <point x="95.0" y="-161.0" name="GHDGTIBZ"/>
      <point x="58.0" y="-188.0" name="NCZZZOST"/>
      <point x="0.0" y="-188.0" type="curve" smooth="yes" name="NRHGOEDS"/>
      <point x="-58.0" y="-188.0" name="WQFHWTRF"/>
      <point x="-95.0" y="-161.0" name="MPDZMXNQ"/>
      <point x="-111.0" y="-118.0" type="curve" smooth="yes" name="OJCFLSHV"/>
    </contour>
    <contour>
      <point x="65.0" y="-68.0" type="move" name="RHILBNNY"/>
      <point x="111.0" y="-118.0" type="line" name="CIJTNCLN"/>
      <point x="173.0" y="-68.0" type="line" name="RWDTLOLS"/>
    </contour>
    <contour>
      <point x="-173.0" y="-68.0" type="move" name="REBNZWIV"/>
      <point x="-111.0" y="-118.0" type="line" name="QJFUFJUA"/>
      <point x="-65.0" y="-68.0" type="line" name="APNWGLIR"/>
    </contour>
  </outline>
</glyph>
<glyph name="endash" format="2">
  <advance width="555"/>
  <unicode hex="2013"/>
  <outline>
    <contour>
      <point x="428.0" y="318.0" type="move" name="MVURHHRW"/>
      <point x="127.0" y="318.0" type="line" name="WNAQRIOL"/>
    </contour>
    <contour>
      <point x="65.0" y="256.0" type="move" name="UFVBJNST"/>
      <point x="127.0" y="318.0" type="line" name="OTPCADVO"/>
      <point x="65.0" y="381.0" type="line" name="TMKRXCGA"/>
    </contour>
    <contour>
      <point x="490.0" y="381.0" type="move" name="LSEOJCJB"/>
      <point x="428.0" y="318.0" type="line" name="VDMDVTLL"/>
      <point x="490.0" y="256.0" type="line" name="VAZHSFHT"/>
    </contour>
  </outline>
</glyph>
<glyph name="dagger" format="2">
  <advance width="415"/>
  <unicode hex="2020"/>
  <outline>
    <contour>
      <point x="107.0" y="563.0" type="move" name="OMPSXEZN"/>
      <point x="208.0" y="563.0" type="line" name="MJBJBPUZ"/>
      <point x="298.0" y="563.0" type="line" name="TUXFDILO"/>
    </contour>
    <contour>
      <point x="208.0" y="678.0" type="move" name="DPFFUGAU"/>
      <point x="208" y="563" type="line" name="UHGFOGGJ"/>
      <point x="198" y="409" name="VHRQYGAG"/>
      <point x="220" y="285" name="TDIGOZML"/>
      <point x="237" y="185" type="curve" name="EXCPGZHZ"/>
    </contour>
    <contour>
      <point x="55.0" y="514.0" type="move" name="YKSBPDZL"/>
      <point x="107.0" y="563.0" type="line" name="SJSBMLGJ"/>
      <point x="55.0" y="612.0" type="line" name="EVCDMOCG"/>
    </contour>
    <contour>
      <point x="350.0" y="612.0" type="move" name="WICAUYPZ"/>
      <point x="298.0" y="563.0" type="line" name="OUFOSSRC"/>
      <point x="350.0" y="514.0" type="line" name="UDHPOCXN"/>
    </contour>
    <contour>
      <point x="155.0" y="730.0" type="move" name="RNPIGPCV"/>
      <point x="208.0" y="678.0" type="line" name="SHAUIKSO"/>
      <point x="260.0" y="730.0" type="line" name="NFJPETTB"/>
    </contour>
    <contour>
      <point x="135.0" y="514.0" type="move" name="LESFMYZG"/>
      <point x="208.0" y="563.0" type="line" name="ELTWUNTF"/>
      <point x="272.0" y="612.0" type="line" name="GIZIOGZC"/>
    </contour>
    <contour>
      <point x="143.0" y="612.0" type="move" name="YBLTRSBO"/>
      <point x="208.0" y="563.0" type="line" name="TSCPRSGW"/>
      <point x="278.0" y="514.0" type="line" name="TRXTWCDM"/>
    </contour>
  </outline>
</glyph>
<glyph name="bullet" format="2">
  <advance width="568"/>
  <unicode hex="2022"/>
  <outline>
    <contour>
      <point x="118" y="473" type="move" name="YCSTYEEC"/>
      <point x="284" y="307" type="line" name="KHSETQGA"/>
      <point x="450" y="141" type="line" name="RCKUKRZQ"/>
    </contour>
    <contour>
      <point x="118" y="141" type="move" name="PARLDFMM"/>
      <point x="284.0" y="307.0" type="line" name="EEEJZTHH"/>
      <point x="450" y="473" type="line" name="BDIQIRWZ"/>
    </contour>
  </outline>
</glyph>
<glyph name="perthousand" format="2">
  <advance width="1443"/>
  <unicode hex="2030"/>
  <outline>
    <contour>
      <point x="239" y="314" type="curve" smooth="yes" name="SPAOKSDL"/>
      <point x="160" y="314" name="OWMIKUZB"/>
      <point x="108" y="382" name="UDMFPDVH"/>
      <point x="108" y="478" type="curve" smooth="yes" name="VJQDHEPF"/>
      <point x="108" y="573" name="DDXNAHEC"/>
      <point x="160" y="640" name="RDHSNSAJ"/>
      <point x="239" y="640" type="curve" smooth="yes" name="DTCKEGFC"/>
      <point x="318" y="640" name="GKOCQNAD"/>
      <point x="372" y="573" name="FPBCRZLU"/>
      <point x="372" y="478" type="curve" smooth="yes" name="DNLCNZPV"/>
      <point x="372" y="382" name="KOLUEHHK"/>
      <point x="318" y="314" name="HLVPVNKH"/>
    </contour>
    <contour>
      <point x="784" y="40" type="curve" smooth="yes" name="LIDPAUOP"/>
      <point x="704" y="40" name="ZQBPBMDI"/>
      <point x="652" y="108" name="VLOYJVOW"/>
      <point x="652" y="204" type="curve" smooth="yes" name="FUEVIZFQ"/>
      <point x="652" y="299" name="PFUCIXXO"/>
      <point x="704" y="366" name="CDYERSVA"/>
      <point x="784" y="366" type="curve" smooth="yes" name="ZLACAFEU"/>
      <point x="864" y="366" name="CKFIWAGF"/>
      <point x="916" y="299" name="DZEPRBKG"/>
      <point x="916" y="204" type="curve" smooth="yes" name="TGXAIVHO"/>
      <point x="916" y="108" name="ISQLLWQL"/>
      <point x="864" y="40" name="UPQKLCJE"/>
    </contour>
    <contour>
      <point x="687.0" y="628.0" type="move" name="DSILLYXS"/>
      <point x="335.0" y="52.0" type="line" name="TWSHYYLF"/>
    </contour>
    <contour>
      <point x="367.0" y="0.0" type="move" name="XKZVIVYH"/>
      <point x="335.0" y="52.0" type="line" name="YHSOZORF"/>
      <point x="239.0" y="0.0" type="line" name="YNKFKFMT"/>
    </contour>
    <contour>
      <point x="655.0" y="680.0" type="move" name="AHXRFYXD"/>
      <point x="687.0" y="628.0" type="line" name="CSRUTMML"/>
      <point x="783.0" y="680.0" type="line" name="PDDTDBFO"/>
    </contour>
    <contour>
      <point x="1204" y="40" type="curve" smooth="yes" name="RNBKZIYQ"/>
      <point x="1124" y="40" name="HXJCNOIF"/>
      <point x="1072" y="108" name="NOUMLDQE"/>
      <point x="1072" y="204" type="curve" smooth="yes" name="ZNLEOTHS"/>
      <point x="1072" y="299" name="KSWNFQMA"/>
      <point x="1124" y="366" name="PUXJGQIZ"/>
      <point x="1204" y="366" type="curve" smooth="yes" name="EBCWBLFP"/>
      <point x="1284" y="366" name="RQYREALT"/>
      <point x="1336" y="299" name="EPQTAJPH"/>
      <point x="1336" y="204" type="curve" smooth="yes" name="LSQTGLAB"/>
      <point x="1336" y="108" name="ALZJOPFI"/>
      <point x="1284" y="40" name="YHEIQZJO"/>
    </contour>
  </outline>
</glyph>
<glyph name="second" format="2">
  <advance width="488"/>
  <unicode hex="2033"/>
  <outline>
    <contour>
      <point x="38" y="398" type="move" name="XTDAZHEN"/>
      <point x="99" y="457" name="OWPBIJID"/>
      <point x="146" y="536" name="QRPNPSED"/>
      <point x="178" y="618" type="curve" smooth="yes" name="PNPNHUXE"/>
    </contour>
    <contour>
      <point x="114.0" y="680.0" type="move" name="SFLOLYUF"/>
      <point x="178.0" y="618.0" type="line" name="WZGBHWZC"/>
      <point x="283.0" y="680.0" type="line" name="ECUUNSVW"/>
    </contour>
    <contour>
      <point x="258.0" y="398.0" type="move" name="GBLBTHID"/>
      <point x="319.0" y="457.0" name="MWMZBGZH"/>
      <point x="366.0" y="536.0" name="GMERHOAQ"/>
      <point x="398.0" y="618.0" type="curve" smooth="yes" name="ILPIWJBO"/>
    </contour>
    <contour>
      <point x="334.0" y="680.0" type="move" name="LDMVMFYC"/>
      <point x="398.0" y="618.0" type="line" name="QGICPSEU"/>
      <point x="503.0" y="680.0" type="line" name="NTIRFZXE"/>
    </contour>
  </outline>
</glyph>
<glyph name="franc" format="2">
  <advance width="543"/>
  <unicode hex="20A3"/>
  <outline>
    <contour>
      <point x="387.0" y="360.0" type="move" name="KJSNTQLP"/>
      <point x="156" y="360" type="line" name="CIALFMJR"/>
    </contour>
    <contour>
      <point x="341.0" y="162.0" type="move" name="STKRWONG"/>
      <point x="156" y="162" type="line" name="IIDETUPU"/>
      <point x="82.0" y="162.0" type="line" name="RQLGFNLE"/>
    </contour>
    <contour>
      <point x="156.0" y="62.0" type="move" name="VFATOQJS"/>
      <point x="156" y="162" type="line" name="AMTUEBQB"/>
      <point x="156" y="360" type="line" name="JIRCOKAK"/>
      <point x="156" y="618" type="line" name="LQFMHSFY"/>
      <point x="233" y="622" name="NXVYUBDP"/>
      <point x="335" y="620" name="URTLSHXF"/>
      <point x="414" y="611" type="curve" smooth="yes" name="XSIUVSAU"/>
    </contour>
    <contour>
      <point x="57.0" y="680.0" type="move" name="FWVHDYVE"/>
      <point x="156.0" y="618.0" type="line" name="QDSOFBKP"/>
      <point x="231.0" y="555.0" type="line" name="XXFJYGHR"/>
    </contour>
    <contour>
      <point x="476.0" y="680.0" type="move" name="ZMZRGHFI"/>
      <point x="414.0" y="611.0" type="line" name="EJWULAXU"/>
      <point x="476.0" y="524.0" type="line" name="ZMNWGNUY"/>
    </contour>
    <contour>
      <point x="449.0" y="442.0" type="move" name="GONKRLID"/>
      <point x="387.0" y="360.0" type="line" name="LEVFXMJE"/>
      <point x="449.0" y="279.0" type="line" name="LDAOFKUP"/>
    </contour>
    <contour>
      <point x="227.0" y="420.0" type="move" name="POXBYIVU"/>
      <point x="156.0" y="360.0" type="line" name="VQGBQRWP"/>
      <point x="227.0" y="300.0" type="line" name="PIHJHFJT"/>
    </contour>
    <contour>
      <point x="254.0" y="0.0" type="move" name="KHUJCMID"/>
      <point x="156.0" y="62.0" type="line" name="RXCBNZKV"/>
      <point x="57" y="0" type="line" name="VRYYMGPS"/>
    </contour>
    <contour>
      <point x="403.0" y="223.0" type="move" name="OYGXKGBP"/>
      <point x="341.0" y="162.0" type="line" name="ANIAMYKT"/>
      <point x="403.0" y="102.0" type="line" name="VLEITVTX"/>
    </contour>
    <contour>
      <point x="20.0" y="102.0" type="move" name="SCXESZHY"/>
      <point x="82.0" y="162.0" type="line" name="HBIZWIKO"/>
      <point x="20.0" y="223.0" type="line" name="SWEREUOW"/>
    </contour>
    <contour>
      <point x="79.0" y="102.0" type="move" name="JXOWRCMG"/>
      <point x="156.0" y="162.0" type="line" name="OVBXQVEO"/>
      <point x="228.0" y="223.0" type="line" name="XDYEAQHT"/>
    </contour>
    <contour>
      <point x="83.0" y="223.0" type="move" name="DEQERZPI"/>
      <point x="156.0" y="162.0" type="line" name="JKPUPKAB"/>
      <point x="232.0" y="102.0" type="line" name="ZLZRUPPQ"/>
    </contour>
  </outline>
</glyph>
<glyph name="naira" format="2">
  <advance width="671"/>
  <unicode hex="20A6"/>
  <outline>
    <contour>
      <point x="585.0" y="450.0" type="move" name="WTGUKJMS"/>
      <point x="277" y="450" type="line" name="EHTWEPWW"/>
      <point x="160" y="450" type="line" name="ZVEMBAMB"/>
      <point x="86.0" y="450.0" type="line" name="IZUACEIX"/>
    </contour>
    <contour>
      <point x="585.0" y="236.0" type="move" name="ZNVSVDTP"/>
      <point x="508" y="236" type="line" name="RHAWJESV"/>
      <point x="399" y="236" type="line" name="VAHGSKYB"/>
      <point x="160" y="236" type="line" name="AINSALQA"/>
      <point x="86.0" y="236.0" type="line" name="QBTHBMOF"/>
    </contour>
    <contour>
      <point x="254.0" y="0.0" type="move" name="OMHHULYO"/>
      <point x="160.0" y="62.0" type="line" name="WKJRYIZW"/>
      <point x="67.0" y="0.0" type="line" name="JVIRZBWV"/>
    </contour>
    <contour>
      <point x="67.0" y="680.0" type="move" name="IQSFTGGX"/>
      <point x="153.0" y="628.0" type="line" name="QSKWDZHK"/>
      <point x="223.0" y="680.0" type="line" name="EFJMAFQQ"/>
    </contour>
    <contour>
      <point x="35.0" y="497.0" type="move" name="KGGNABNQ"/>
      <point x="86.0" y="450.0" type="line" name="HPVFYCUE"/>
      <point x="35.0" y="402.0" type="line" name="OVPQHNKX"/>
    </contour>
    <contour>
      <point x="35.0" y="283.0" type="move" name="QLEHHOQT"/>
      <point x="86.0" y="236.0" type="line" name="AJTZYDPM"/>
      <point x="35.0" y="188.0" type="line" name="NQBZDZGJ"/>
    </contour>
    <contour>
      <point x="227.0" y="283.0" type="move" name="CZTCPRET"/>
      <point x="160.0" y="236.0" type="line" name="MENKJCIC"/>
      <point x="92.0" y="188.0" type="line" name="JAHVSCXK"/>
    </contour>
    <contour>
      <point x="229.0" y="188.0" type="move" name="OZYCAEXE"/>
      <point x="160.0" y="236.0" type="line" name="QOJLIEUU"/>
      <point x="94.0" y="283.0" type="line" name="YGASVUFW"/>
    </contour>
    <contour>
      <point x="327" y="497" type="move" name="TTBUCZQO"/>
      <point x="277.0" y="450.0" type="line" name="NMEPSFBX"/>
      <point x="204" y="497" type="line" name="LPMBPOYM"/>
      <point x="160" y="450" type="line" name="KEPADKLZ"/>
      <point x="94" y="402" type="line" name="KRLTTQOL"/>
    </contour>
    <contour>
      <point x="153" y="628" type="move" name="AQQZGRBE"/>
      <point x="169" y="595" name="OTFMSUTV"/>
      <point x="186" y="537" name="NMDUXXPD"/>
      <point x="204" y="497" type="curve" smooth="yes" name="YJOEUNQL"/>
    </contour>
    <contour>
      <point x="93" y="497" type="move" name="BQRFLPUH"/>
      <point x="160" y="450" type="line" name="APSMNVVP"/>
      <point x="227" y="400" type="line" name="NOUEAYGT"/>
      <point x="277.0" y="450.0" type="line" name="WHEEGNDQ"/>
      <point x="381" y="402" type="line" name="QDGSVKER"/>
    </contour>
    <contour>
      <point x="636.0" y="188.0" type="move" name="YOYYAGIB"/>
      <point x="585.0" y="235.0" type="line" name="ZOATKQEF"/>
      <point x="636.0" y="283.0" type="line" name="CNECJTVP"/>
    </contour>
    <contour>
      <point x="636.0" y="402.0" type="move" name="NCSGIHIR"/>
      <point x="585.0" y="449.0" type="line" name="DNHVQUWI"/>
      <point x="636.0" y="497.0" type="line" name="QHBPHIEO"/>
    </contour>
    <contour>
      <point x="444.0" y="402.0" type="move" name="OECSCGWR"/>
      <point x="511.0" y="449.0" type="line" name="OGFOUJQS"/>
      <point x="579.0" y="497.0" type="line" name="PZUGQPRR"/>
    </contour>
    <contour>
      <point x="442.0" y="497.0" type="move" name="GVEIJOFI"/>
      <point x="511.0" y="449.0" type="line" name="QFWRTTYR"/>
      <point x="577.0" y="402.0" type="line" name="YHITNPXQ"/>
    </contour>
    <contour>
      <point x="344.0" y="188.0" type="move" name="MTSIQZAR"/>
      <point x="399.0" y="236.0" type="line" name="TQMDCEFI"/>
      <point x="467.0" y="188.0" type="line" name="YAOHUDVA"/>
      <point x="508.0" y="236.0" type="line" name="BSTKBVWM"/>
      <point x="577.0" y="283.0" type="line" name="MEBZCTKP"/>
    </contour>
    <contour>
      <point x="515.0" y="52.0" type="move" name="NUJFMHMX"/>
      <point x="499.0" y="86.0" name="XCKEHLTB"/>
      <point x="485.0" y="148" name="WJNDJDVO"/>
      <point x="467.0" y="188.0" type="curve" smooth="yes" name="VDHFSJYW"/>
    </contour>
    <contour>
      <point x="578.0" y="188.0" type="move" name="UIUFKWOM"/>
      <point x="508.0" y="236.0" type="line" name="THAHQZIP"/>
      <point x="442.0" y="294.0" type="line" name="CEKLEPXM"/>
      <point x="399.0" y="236.0" type="line" name="AICBXXII"/>
      <point x="290.0" y="283.0" type="line" name="PVIKGCAR"/>
    </contour>
    <contour>
      <point x="415.0" y="680.0" type="move" name="JARRKOLI"/>
      <point x="508.0" y="618.0" type="line" name="OMSKYTAD"/>
      <point x="602.0" y="680.0" type="line" name="WZLLHXNM"/>
    </contour>
    <contour>
      <point x="592.0" y="0.0" type="move" name="MFRINONY"/>
      <point x="515.0" y="52.0" type="line" name="QPIAPOHK"/>
      <point x="456.0" y="0.0" type="line" name="AWQFXXES"/>
    </contour>
    <contour>
      <point x="508.0" y="618.0" type="move" name="RIVSBNMR"/>
      <point x="508" y="444" type="line" name="GDWESJML"/>
      <point x="508" y="293" name="UGMNBYJE"/>
      <point x="508" y="266" name="DGKLANAM"/>
      <point x="508" y="236" type="curve" smooth="yes" name="DKNEZRHG"/>
      <point x="508" y="158" name="LWHWOZGU"/>
      <point x="511" y="98" name="VGPFEXDM"/>
      <point x="515" y="52" type="curve" name="YKKVFHPN"/>
      <point x="479" y="90" name="WZQCRLCD"/>
      <point x="445" y="156" name="CZTJCHUV"/>
      <point x="399" y="236" type="curve" smooth="yes" name="PLGDARND"/>
      <point x="277" y="450" type="line" smooth="yes" name="EIUGCIVW"/>
      <point x="231" y="530" name="GMJXFRAN"/>
      <point x="189" y="590" name="MKMTTJBQ"/>
      <point x="153" y="628" type="curve" name="VGBFUGKK"/>
      <point x="157" y="582" name="ITLCWHQW"/>
      <point x="159" y="528" name="HAEDUFCW"/>
      <point x="160" y="450" type="curve" smooth="yes" name="JTMLKOPM"/>
      <point x="160" y="420" name="EEBESRRZ"/>
      <point x="160" y="387" name="UGTATHEI"/>
      <point x="160" y="236" type="curve" name="MRTCVWTH"/>
      <point x="160.0" y="62.0" type="line" name="PSSIRNFY"/>
    </contour>
  </outline>
</glyph>
<glyph name="arrowleft" format="2">
  <advance width="675"/>
  <unicode hex="2190"/>
  <outline>
    <contour>
      <point x="411" y="635" type="move" name="QVGUXTQJ"/>
      <point x="330" y="500" name="MGOLNTHB"/>
      <point x="241" y="402" name="EXVRHSVR"/>
      <point x="137" y="308" type="curve" name="UTLRKEQC"/>
      <point x="241" y="215" name="AELMXEYU"/>
      <point x="330" y="106" name="OGMVGVFK"/>
      <point x="411" y="-29" type="curve" name="RXYACUZC"/>
    </contour>
    <contour>
      <point x="588" y="308" type="move" name="QPHYUFCK"/>
      <point x="137" y="308" type="line" name="VEFCEOIH"/>
      <point x="5" y="308" type="line" name="MCHVBBDS"/>
    </contour>
    <contour>
      <point x="650.0" y="396.0" type="move" name="LSEOJCJB"/>
      <point x="588.0" y="308.0" type="line" name="VDMDVTLL"/>
      <point x="650.0" y="221.0" type="line" name="VAZHSFHT"/>
    </contour>
    <contour>
      <point x="296" y="368" type="move" name="KLONTXGP"/>
      <point x="137.0" y="308.0" type="line" name="DVHGCLJS"/>
      <point x="289.0" y="249.0" type="line" name="JEJRUKMR"/>
    </contour>
  </outline>
</glyph>
<glyph name="arrowNW" format="2">
  <advance width="636"/>
  <unicode hex="2196"/>
  <outline>
    <contour>
      <point x="593" y="531" type="move" name="RXYACUZC"/>
      <point x="440" y="492" name="OGMVGVFK"/>
      <point x="300" y="478" name="AELMXEYU"/>
      <point x="161" y="486" type="curve" name="UTLRKEQC"/>
      <point x="168" y="346" name="EXVRHSVR"/>
      <point x="162" y="214" name="MGOLNTHB"/>
      <point x="123" y="61" type="curve" name="QVGUXTQJ"/>
    </contour>
    <contour>
      <point x="67" y="579" type="move" name="MCHVBBDS"/>
      <point x="161" y="486" type="line" name="VEFCEOIH"/>
      <point x="490" y="157" type="line" name="QPHYUFCK"/>
    </contour>
    <contour>
      <point x="595" y="175" type="move" name="VAZHSFHT"/>
      <point x="490" y="157" type="line" name="VDMDVTLL"/>
      <point x="471" y="51" type="line" name="LSEOJCJB"/>
    </contour>
    <contour>
      <point x="310" y="420" type="move" name="JEJRUKMR"/>
      <point x="161" y="486" type="line" name="DVHGCLJS"/>
      <point x="231" y="331" type="line" name="KLONTXGP"/>
    </contour>
  </outline>
</glyph>
<glyph name="arrowSE" format="2">
  <advance width="636"/>
  <unicode hex="2198"/>
  <outline>
    <contour>
      <point x="47" y="99" type="move" name="RXYACUZC"/>
      <point x="200" y="138" name="OGMVGVFK"/>
      <point x="340" y="152" name="AELMXEYU"/>
      <point x="479" y="144" type="curve" name="UTLRKEQC"/>
      <point x="472" y="284" name="EXVRHSVR"/>
      <point x="478" y="416" name="MGOLNTHB"/>
      <point x="517" y="569" type="curve" name="QVGUXTQJ"/>
    </contour>
    <contour>
      <point x="573" y="51" type="move" name="MCHVBBDS"/>
      <point x="479" y="144" type="line" name="VEFCEOIH"/>
      <point x="150" y="473" type="line" name="QPHYUFCK"/>
    </contour>
    <contour>
      <point x="45" y="455" type="move" name="VAZHSFHT"/>
      <point x="150" y="473" type="line" name="VDMDVTLL"/>
      <point x="169" y="579" type="line" name="LSEOJCJB"/>
    </contour>
    <contour>
      <point x="330" y="210" type="move" name="JEJRUKMR"/>
      <point x="479" y="144" type="line" name="DVHGCLJS"/>
      <point x="409" y="299" type="line" name="KLONTXGP"/>
    </contour>
  </outline>
</glyph>
<glyph name="bracketangleright" format="2">
  <advance width="381"/>
  <unicode hex="27E9"/>
  <outline>
    <contour>
      <point x="110.0" y="62.0" type="move" name="PMIVPZDE"/>
      <point x="264.0" y="339.0" type="line" name="QEBJURHH"/>
      <point x="109.0" y="618.0" type="line" name="LFLIMCTJ"/>
    </contour>
    <contour>
      <point x="151.0" y="0.0" type="move" name="JRLMZRMB"/>
      <point x="110.0" y="62.0" type="line" name="VWUMAPUP"/>
      <point x="1.0" y="0.0" type="line" name="XJBUXPFQ"/>
    </contour>
    <contour>
      <point x="0.0" y="680.0" type="move" name="JQAGTAET"/>
      <point x="109.0" y="618.0" type="line" name="BMOSXGYP"/>
      <point x="149.0" y="680.0" type="line" name="NKCAZKTC"/>
    </contour>
    <contour>
      <point x="187.0" y="340.0" type="move" name="GBDSDPQS"/>
      <point x="264.0" y="339.0" type="line" name="POIMSFXQ"/>
      <point x="341.0" y="339.0" type="line" name="KQEUONTZ"/>
    </contour>
  </outline>
</glyph>
<glyph name="caroncmb.alt" format="2">
  <anchor x="-125" y="537" name="right"/>
  <outline>
    <contour>
      <point x="-97" y="499" type="move" name="HIWALZCX"/>
      <point x="-21" y="554" name="XZFWRMUS"/>
      <point x="12" y="622" name="IRUTOVZD"/>
      <point x="18" y="670" type="curve" smooth="yes" name="DQUFKTUH"/>
    </contour>
    <contour>
      <point x="-62.0" y="730.0" type="move" name="WVVRGEHI"/>
      <point x="18.0" y="670.0" type="line" name="EEMVZNWO"/>
      <point x="95.0" y="730.0" type="line" name="YYQPQQLT"/>
    </contour>
  </outline>
</glyph>
